<svg width="293" height="261" xmlns="http://www.w3.org/2000/svg"><path fill-rule="evenodd" d="M 85.00 68.00 C 83.67 67.67 81.00 68.00 80.00 69.00 C 79.00 70.00 78.17 71.33 79.00 74.00 C 79.83 76.67 83.67 78.83 85.00 85.00 C 86.33 91.17 87.50 106.50 87.00 111.00 C 86.50 115.50 83.33 111.33 82.00 112.00 C 80.67 112.67 83.67 113.50 79.00 115.00 C 74.33 116.50 58.67 119.67 54.00 121.00 C 49.33 122.33 52.67 122.83 51.00 123.00 C 49.33 123.17 43.83 124.50 44.00 122.00 C 44.17 119.50 49.50 114.00 52.00 108.00 C 54.50 102.00 56.67 91.83 59.00 86.00 C 61.33 80.17 64.83 75.50 66.00 73.00 C 67.17 70.50 66.17 71.17 66.00 71.00 C 65.83 70.83 65.83 72.50 65.00 72.00 C 64.17 71.50 63.50 63.17 61.00 68.00 C 58.50 72.83 53.00 93.17 50.00 101.00 C 47.00 108.83 45.67 110.83 43.00 115.00 C 40.33 119.17 35.50 123.50 34.00 126.00 C 32.50 128.50 33.83 129.17 34.00 130.00 C 34.17 130.83 33.00 131.00 35.00 131.00 C 37.00 131.00 37.83 131.83 46.00 130.00 C 54.17 128.17 77.17 121.50 84.00 120.00 C 90.83 118.50 86.50 119.50 87.00 121.00 C 87.50 122.50 92.50 119.00 87.00 129.00 C 81.50 139.00 61.00 170.67 54.00 181.00 C 47.00 191.33 47.83 187.17 45.00 191.00 C 42.17 194.83 39.33 200.83 37.00 204.00 C 34.67 207.17 33.67 206.33 31.00 210.00 C 28.33 213.67 24.50 221.17 21.00 226.00 C 17.50 230.83 11.67 236.00 10.00 239.00 C 8.33 242.00 10.50 243.17 11.00 244.00 C 11.50 244.83 10.50 246.50 13.00 244.00 C 15.50 241.50 23.67 232.33 26.00 229.00 C 28.33 225.67 26.17 225.50 27.00 224.00 C 27.83 222.50 30.00 221.50 31.00 220.00 C 32.00 218.50 28.17 221.50 33.00 215.00 C 37.83 208.50 54.67 188.33 60.00 181.00 C 65.33 173.67 60.50 177.83 65.00 171.00 C 69.50 164.17 82.83 144.67 87.00 140.00 C 91.17 135.33 89.33 140.83 90.00 143.00 C 90.67 145.17 91.17 148.50 91.00 153.00 C 90.83 157.50 89.17 166.50 89.00 170.00 C 88.83 173.50 90.17 167.83 90.00 174.00 C 89.83 180.17 89.00 201.33 88.00 207.00 C 87.00 212.67 87.17 210.83 84.00 208.00 C 80.83 205.17 72.33 193.67 69.00 190.00 C 65.67 186.33 62.33 182.33 64.00 186.00 C 65.67 189.67 75.67 207.17 79.00 212.00 C 82.33 216.83 82.50 213.67 84.00 215.00 C 85.50 216.33 86.67 219.17 88.00 220.00 C 89.33 220.83 90.83 229.83 92.00 220.00 C 93.17 210.17 94.83 175.83 95.00 161.00 C 95.17 146.17 93.00 136.17 93.00 131.00 C 93.00 125.83 94.67 130.67 95.00 130.00 C 95.33 129.33 95.67 128.33 95.00 127.00 C 94.33 125.67 91.50 123.33 91.00 122.00 C 90.50 120.67 91.00 120.00 92.00 119.00 C 93.00 118.00 93.17 117.00 97.00 116.00 C 100.83 115.00 111.83 114.00 115.00 113.00 C 118.17 112.00 116.33 111.00 116.00 110.00 C 115.67 109.00 114.33 107.50 113.00 107.00 C 111.67 106.50 109.33 107.50 108.00 107.00 C 106.67 106.50 106.00 104.33 105.00 104.00 C 104.00 103.67 102.83 104.17 102.00 105.00 C 101.17 105.83 101.50 108.00 100.00 109.00 C 98.50 110.00 94.50 111.00 93.00 111.00 C 91.50 111.00 91.67 113.67 91.00 109.00 C 90.33 104.33 89.67 88.17 89.00 83.00 C 88.33 77.83 87.17 80.00 87.00 78.00 C 86.83 76.00 88.33 72.67 88.00 71.00 C 87.67 69.33 86.33 68.33 85.00 68.00 Z M 57.00 124.00 C 57.00 123.67 57.67 123.00 58.00 123.00 C 58.33 123.00 59.00 123.67 59.00 124.00 C 59.00 124.33 58.33 125.00 58.00 125.00 C 57.67 125.00 57.00 124.33 57.00 124.00 Z M 84.00 73.00 C 84.17 72.67 84.67 72.17 85.00 72.00 C 85.33 71.83 85.67 71.83 86.00 72.00 C 86.33 72.17 86.83 72.67 87.00 73.00 C 87.17 73.33 87.17 73.67 87.00 74.00 C 86.83 74.33 86.33 74.83 86.00 75.00 C 85.67 75.17 85.33 75.17 85.00 75.00 C 84.67 74.83 84.17 74.33 84.00 74.00 C 83.83 73.67 83.83 73.33 84.00 73.00 Z M 63.00 72.00 C 63.17 71.67 63.67 71.00 64.00 71.00 C 64.33 71.00 64.83 71.67 65.00 72.00 C 65.17 72.33 65.17 72.67 65.00 73.00 C 64.83 73.33 64.33 74.00 64.00 74.00 C 63.67 74.00 63.17 73.33 63.00 73.00 C 62.83 72.67 62.83 72.33 63.00 72.00 Z M 106.00 42.00 C 105.67 41.17 104.83 40.33 104.00 40.00 C 103.17 39.67 101.67 40.17 101.00 40.00 C 100.33 39.83 100.83 39.17 100.00 39.00 C 99.17 38.83 96.83 39.17 96.00 39.00 C 95.17 38.83 95.67 38.17 95.00 38.00 C 94.33 37.83 92.67 37.83 92.00 38.00 C 91.33 38.17 91.33 38.83 91.00 39.00 C 90.67 39.17 90.33 38.83 90.00 39.00 C 89.67 39.17 89.33 39.83 89.00 40.00 C 88.67 40.17 88.33 39.83 88.00 40.00 C 87.67 40.17 88.67 40.83 87.00 41.00 C 85.33 41.17 79.67 40.83 78.00 41.00 C 76.33 41.17 77.83 41.83 77.00 42.00 C 76.17 42.17 73.83 41.83 73.00 42.00 C 72.17 42.17 73.17 42.83 72.00 43.00 C 70.83 43.17 67.17 42.83 66.00 43.00 C 64.83 43.17 65.83 43.83 65.00 44.00 C 64.17 44.17 61.83 43.83 61.00 44.00 C 60.17 44.17 61.33 44.83 60.00 45.00 C 58.67 45.17 54.33 44.83 53.00 45.00 C 51.67 45.17 53.17 45.83 52.00 46.00 C 50.83 46.17 47.17 45.83 46.00 46.00 C 44.83 46.17 46.17 46.83 45.00 47.00 C 43.83 47.17 40.17 47.17 39.00 47.00 C 37.83 46.83 38.33 46.17 38.00 46.00 C 37.67 45.83 37.33 45.83 37.00 46.00 C 36.67 46.17 36.50 46.83 36.00 47.00 C 35.50 47.17 34.50 47.17 34.00 47.00 C 33.50 46.83 33.33 46.00 33.00 46.00 C 32.67 46.00 32.67 46.83 32.00 47.00 C 31.33 47.17 29.67 46.83 29.00 47.00 C 28.33 47.17 28.33 47.83 28.00 48.00 C 27.67 48.17 27.17 47.83 27.00 48.00 C 26.83 48.17 27.17 48.67 27.00 49.00 C 26.83 49.33 26.67 49.83 26.00 50.00 C 25.33 50.17 23.50 49.50 23.00 50.00 C 22.50 50.50 22.83 52.50 23.00 53.00 C 23.17 53.50 23.67 52.83 24.00 53.00 C 24.33 53.17 24.33 53.83 25.00 54.00 C 25.67 54.17 27.33 54.17 28.00 54.00 C 28.67 53.83 28.67 53.00 29.00 53.00 C 29.33 53.00 29.67 54.00 30.00 54.00 C 30.33 54.00 28.83 53.17 31.00 53.00 C 33.17 52.83 40.83 53.17 43.00 53.00 C 45.17 52.83 41.83 52.17 44.00 52.00 C 46.17 51.83 53.83 52.17 56.00 52.00 C 58.17 51.83 56.00 51.17 57.00 51.00 C 58.00 50.83 61.00 51.17 62.00 51.00 C 63.00 50.83 62.17 50.17 63.00 50.00 C 63.83 49.83 66.17 50.17 67.00 50.00 C 67.83 49.83 67.00 49.17 68.00 49.00 C 69.00 48.83 72.00 49.17 73.00 49.00 C 74.00 48.83 72.33 48.17 74.00 48.00 C 75.67 47.83 81.33 48.17 83.00 48.00 C 84.67 47.83 81.50 47.17 84.00 47.00 C 86.50 46.83 95.50 47.17 98.00 47.00 C 100.50 46.83 97.83 46.17 99.00 46.00 C 100.17 45.83 103.83 46.17 105.00 46.00 C 106.17 45.83 105.83 45.67 106.00 45.00 C 106.17 44.33 106.33 42.83 106.00 42.00 Z M 166.00 24.00 C 165.83 23.17 165.33 24.17 165.00 24.00 C 164.67 23.83 164.83 23.17 164.00 23.00 C 163.17 22.83 161.00 22.67 160.00 23.00 C 159.00 23.33 158.33 24.33 158.00 25.00 C 157.67 25.67 157.67 26.33 158.00 27.00 C 158.33 27.67 159.67 28.50 160.00 29.00 C 160.33 29.50 160.33 29.50 160.00 30.00 C 159.67 30.50 158.50 31.67 158.00 32.00 C 157.50 32.33 157.17 31.83 157.00 32.00 C 156.83 32.17 157.17 32.67 157.00 33.00 C 156.83 33.33 156.33 33.83 156.00 34.00 C 155.67 34.17 155.17 33.50 155.00 34.00 C 154.83 34.50 155.17 36.33 155.00 37.00 C 154.83 37.67 154.17 37.67 154.00 38.00 C 153.83 38.33 154.17 38.67 154.00 39.00 C 153.83 39.33 153.17 39.67 153.00 40.00 C 152.83 40.33 153.17 40.67 153.00 41.00 C 152.83 41.33 152.17 41.67 152.00 42.00 C 151.83 42.33 152.17 42.67 152.00 43.00 C 151.83 43.33 151.17 43.67 151.00 44.00 C 150.83 44.33 151.17 44.67 151.00 45.00 C 150.83 45.33 150.17 45.67 150.00 46.00 C 149.83 46.33 150.17 46.67 150.00 47.00 C 149.83 47.33 149.17 47.67 149.00 48.00 C 148.83 48.33 149.17 48.67 149.00 49.00 C 148.83 49.33 148.17 49.67 148.00 50.00 C 147.83 50.33 148.33 50.50 148.00 51.00 C 147.67 51.50 146.33 52.50 146.00 53.00 C 145.67 53.50 146.33 53.50 146.00 54.00 C 145.67 54.50 144.33 55.50 144.00 56.00 C 143.67 56.50 144.50 56.33 144.00 57.00 C 143.50 57.67 141.50 59.33 141.00 60.00 C 140.50 60.67 141.50 60.33 141.00 61.00 C 140.50 61.67 138.50 63.33 138.00 64.00 C 137.50 64.67 138.50 64.33 138.00 65.00 C 137.50 65.67 135.50 67.33 135.00 68.00 C 134.50 68.67 135.67 68.17 135.00 69.00 C 134.33 69.83 131.67 72.17 131.00 73.00 C 130.33 73.83 131.67 73.17 131.00 74.00 C 130.33 74.83 127.67 77.17 127.00 78.00 C 126.33 78.83 127.33 78.50 127.00 79.00 C 126.67 79.50 125.50 80.67 125.00 81.00 C 124.50 81.33 124.33 80.83 124.00 81.00 C 123.67 81.17 123.17 81.67 123.00 82.00 C 122.83 82.33 123.50 82.33 123.00 83.00 C 122.50 83.67 120.67 85.50 120.00 86.00 C 119.33 86.50 119.17 85.83 119.00 86.00 C 118.83 86.17 120.17 85.67 119.00 87.00 C 117.83 88.33 113.17 92.67 112.00 94.00 C 110.83 95.33 112.50 94.33 112.00 95.00 C 111.50 95.67 109.50 97.17 109.00 98.00 C 108.50 98.83 108.83 99.50 109.00 100.00 C 109.17 100.50 109.67 100.83 110.00 101.00 C 110.33 101.17 110.50 101.33 111.00 101.00 C 111.50 100.67 112.67 99.67 113.00 99.00 C 113.33 98.33 112.67 97.67 113.00 97.00 C 113.33 96.33 114.50 95.33 115.00 95.00 C 115.50 94.67 115.50 95.33 116.00 95.00 C 116.50 94.67 117.50 93.33 118.00 93.00 C 118.50 92.67 117.83 94.00 119.00 93.00 C 120.17 92.00 123.83 88.00 125.00 87.00 C 126.17 86.00 125.33 87.50 126.00 87.00 C 126.67 86.50 128.50 84.67 129.00 84.00 C 129.50 83.33 127.67 84.50 129.00 83.00 C 130.33 81.50 135.67 76.50 137.00 75.00 C 138.33 73.50 136.50 74.67 137.00 74.00 C 137.50 73.33 139.50 71.67 140.00 71.00 C 140.50 70.33 139.33 70.83 140.00 70.00 C 140.67 69.17 143.33 66.83 144.00 66.00 C 144.67 65.17 143.83 65.33 144.00 65.00 C 144.17 64.67 144.83 64.33 145.00 64.00 C 145.17 63.67 144.33 63.83 145.00 63.00 C 145.67 62.17 148.33 59.83 149.00 59.00 C 149.67 58.17 148.83 58.33 149.00 58.00 C 149.17 57.67 149.83 57.33 150.00 57.00 C 150.17 56.67 149.67 56.50 150.00 56.00 C 150.33 55.50 151.67 54.50 152.00 54.00 C 152.33 53.50 151.83 53.33 152.00 53.00 C 152.17 52.67 152.83 52.33 153.00 52.00 C 153.17 51.67 152.67 51.50 153.00 51.00 C 153.33 50.50 154.67 49.67 155.00 49.00 C 155.33 48.33 154.67 47.67 155.00 47.00 C 155.33 46.33 156.67 45.50 157.00 45.00 C 157.33 44.50 156.83 44.33 157.00 44.00 C 157.17 43.67 157.83 43.33 158.00 43.00 C 158.17 42.67 157.83 42.33 158.00 42.00 C 158.17 41.67 158.83 41.33 159.00 41.00 C 159.17 40.67 158.50 40.67 159.00 40.00 C 159.50 39.33 161.50 37.67 162.00 37.00 C 162.50 36.33 161.83 36.33 162.00 36.00 C 162.17 35.67 162.83 35.50 163.00 35.00 C 163.17 34.50 162.67 33.67 163.00 33.00 C 163.33 32.33 164.67 31.50 165.00 31.00 C 165.33 30.50 164.83 30.33 165.00 30.00 C 165.17 29.67 165.83 30.00 166.00 29.00 C 166.17 28.00 166.17 24.83 166.00 24.00 Z M 154.00 61.00 C 153.17 61.17 152.33 62.50 152.00 63.00 C 151.67 63.50 151.83 63.67 152.00 64.00 C 152.17 64.33 152.83 64.17 153.00 65.00 C 153.17 65.83 152.83 68.17 153.00 69.00 C 153.17 69.83 153.83 69.00 154.00 70.00 C 154.17 71.00 153.83 74.00 154.00 75.00 C 154.17 76.00 154.83 74.67 155.00 76.00 C 155.17 77.33 154.83 81.67 155.00 83.00 C 155.17 84.33 155.83 83.17 156.00 84.00 C 156.17 84.83 156.17 87.17 156.00 88.00 C 155.83 88.83 155.17 85.33 155.00 89.00 C 154.83 92.67 154.83 106.33 155.00 110.00 C 155.17 113.67 156.00 110.67 156.00 111.00 C 156.00 111.33 155.17 108.83 155.00 112.00 C 154.83 115.17 155.17 126.83 155.00 130.00 C 154.83 133.17 154.00 130.67 154.00 131.00 C 154.00 131.33 154.83 130.50 155.00 132.00 C 155.17 133.50 155.17 138.50 155.00 140.00 C 154.83 141.50 154.00 140.67 154.00 141.00 C 154.00 141.33 154.83 141.33 155.00 142.00 C 155.17 142.67 154.83 144.33 155.00 145.00 C 155.17 145.67 155.83 145.00 156.00 146.00 C 156.17 147.00 156.17 150.00 156.00 151.00 C 155.83 152.00 155.17 150.17 155.00 152.00 C 154.83 153.83 154.83 160.17 155.00 162.00 C 155.17 163.83 156.00 162.67 156.00 163.00 C 156.00 163.33 155.00 163.67 155.00 164.00 C 155.00 164.33 155.83 162.83 156.00 165.00 C 156.17 167.17 156.17 174.83 156.00 177.00 C 155.83 179.17 155.00 177.83 155.00 178.00 C 155.00 178.17 155.67 178.17 156.00 178.00 C 156.33 177.83 156.67 177.00 157.00 177.00 C 157.33 177.00 157.83 177.67 158.00 178.00 C 158.17 178.33 158.17 178.67 158.00 179.00 C 157.83 179.33 157.17 179.50 157.00 180.00 C 156.83 180.50 157.17 181.50 157.00 182.00 C 156.83 182.50 156.17 182.33 156.00 183.00 C 155.83 183.67 156.17 185.33 156.00 186.00 C 155.83 186.67 155.17 186.33 155.00 187.00 C 154.83 187.67 155.17 189.33 155.00 190.00 C 154.83 190.67 154.17 187.00 154.00 191.00 C 153.83 195.00 154.17 210.00 154.00 214.00 C 153.83 218.00 153.00 214.67 153.00 215.00 C 153.00 215.33 153.83 211.17 154.00 216.00 C 154.17 220.83 153.83 239.17 154.00 244.00 C 154.17 248.83 154.83 244.33 155.00 245.00 C 155.17 245.67 154.67 247.17 155.00 248.00 C 155.33 248.83 156.33 249.67 157.00 250.00 C 157.67 250.33 158.33 250.50 159.00 250.00 C 159.67 249.50 160.67 250.00 161.00 247.00 C 161.33 244.00 161.17 234.67 161.00 232.00 C 160.83 229.33 160.17 236.00 160.00 231.00 C 159.83 226.00 159.83 207.00 160.00 202.00 C 160.17 197.00 160.83 203.33 161.00 201.00 C 161.17 198.67 160.83 190.33 161.00 188.00 C 161.17 185.67 161.83 190.67 162.00 187.00 C 162.17 183.33 162.17 169.67 162.00 166.00 C 161.83 162.33 161.17 170.67 161.00 165.00 C 160.83 159.33 161.17 137.67 161.00 132.00 C 160.83 126.33 160.17 131.33 160.00 131.00 C 159.83 130.67 159.83 130.33 160.00 130.00 C 160.17 129.67 160.83 137.33 161.00 129.00 C 161.17 120.67 161.17 88.33 161.00 80.00 C 160.83 71.67 160.17 80.67 160.00 79.00 C 159.83 77.33 160.17 71.67 160.00 70.00 C 159.83 68.33 159.17 70.00 159.00 69.00 C 158.83 68.00 158.83 65.00 159.00 64.00 C 159.17 63.00 159.83 63.33 160.00 63.00 C 160.17 62.67 160.17 62.17 160.00 62.00 C 159.83 61.83 159.33 61.83 159.00 62.00 C 158.67 62.17 158.33 63.00 158.00 63.00 C 157.67 63.00 157.67 62.33 157.00 62.00 C 156.33 61.67 154.83 60.83 154.00 61.00 Z M 154.00 64.00 C 154.00 63.67 154.67 63.00 155.00 63.00 C 155.33 63.00 156.00 63.67 156.00 64.00 C 156.00 64.33 155.33 65.00 155.00 65.00 C 154.67 65.00 154.00 64.33 154.00 64.00 Z M 225.00 77.00 C 224.83 76.50 224.33 76.17 224.00 76.00 C 223.67 75.83 223.33 76.17 223.00 76.00 C 222.67 75.83 222.33 75.00 222.00 75.00 C 221.67 75.00 221.17 75.67 221.00 76.00 C 220.83 76.33 221.17 76.67 221.00 77.00 C 220.83 77.33 222.17 77.83 220.00 78.00 C 217.83 78.17 210.33 77.67 208.00 78.00 C 205.67 78.33 206.67 79.67 206.00 80.00 C 205.33 80.33 204.50 79.83 204.00 80.00 C 203.50 80.17 203.33 80.83 203.00 81.00 C 202.67 81.17 202.33 81.17 202.00 81.00 C 201.67 80.83 201.33 80.00 201.00 80.00 C 200.67 80.00 200.67 80.83 200.00 81.00 C 199.33 81.17 197.67 80.83 197.00 81.00 C 196.33 81.17 196.50 81.83 196.00 82.00 C 195.50 82.17 194.50 81.83 194.00 82.00 C 193.50 82.17 193.83 82.83 193.00 83.00 C 192.17 83.17 189.83 82.83 189.00 83.00 C 188.17 83.17 188.33 83.83 188.00 84.00 C 187.67 84.17 187.33 83.83 187.00 84.00 C 186.67 84.17 187.17 84.83 186.00 85.00 C 184.83 85.17 181.17 84.83 180.00 85.00 C 178.83 85.17 179.83 85.83 179.00 86.00 C 178.17 86.17 175.83 85.83 175.00 86.00 C 174.17 86.17 174.50 86.83 174.00 87.00 C 173.50 87.17 172.50 86.83 172.00 87.00 C 171.50 87.17 171.33 87.83 171.00 88.00 C 170.67 88.17 170.50 87.67 170.00 88.00 C 169.50 88.33 168.33 89.17 168.00 90.00 C 167.67 90.83 167.67 92.50 168.00 93.00 C 168.33 93.50 169.50 92.83 170.00 93.00 C 170.50 93.17 170.50 93.83 171.00 94.00 C 171.50 94.17 172.50 94.17 173.00 94.00 C 173.50 93.83 172.50 93.17 174.00 93.00 C 175.50 92.83 180.50 93.17 182.00 93.00 C 183.50 92.83 182.17 92.17 183.00 92.00 C 183.83 91.83 186.17 92.17 187.00 92.00 C 187.83 91.83 187.17 91.17 188.00 91.00 C 188.83 90.83 191.17 91.17 192.00 91.00 C 192.83 90.83 192.50 90.17 193.00 90.00 C 193.50 89.83 194.50 90.17 195.00 90.00 C 195.50 89.83 195.33 89.17 196.00 89.00 C 196.67 88.83 198.33 89.17 199.00 89.00 C 199.67 88.83 198.83 88.17 200.00 88.00 C 201.17 87.83 204.83 88.17 206.00 88.00 C 207.17 87.83 205.83 87.17 207.00 87.00 C 208.17 86.83 211.83 87.17 213.00 87.00 C 214.17 86.83 213.00 86.17 214.00 86.00 C 215.00 85.83 218.00 86.17 219.00 86.00 C 220.00 85.83 219.50 85.17 220.00 85.00 C 220.50 84.83 221.67 85.33 222.00 85.00 C 222.33 84.67 221.83 83.50 222.00 83.00 C 222.17 82.50 222.83 82.33 223.00 82.00 C 223.17 81.67 222.67 81.50 223.00 81.00 C 223.33 80.50 224.67 79.67 225.00 79.00 C 225.33 78.33 225.17 77.50 225.00 77.00 Z M 201.00 97.00 C 200.33 97.33 199.33 98.17 199.00 99.00 C 198.67 99.83 198.67 101.17 199.00 102.00 C 199.33 102.83 200.33 103.67 201.00 104.00 C 201.67 104.33 202.50 103.83 203.00 104.00 C 203.50 104.17 204.33 104.17 204.00 105.00 C 203.67 105.83 201.50 108.00 201.00 109.00 C 200.50 110.00 200.67 110.00 201.00 111.00 C 201.33 112.00 202.67 111.67 203.00 115.00 C 203.33 118.33 203.33 128.00 203.00 131.00 C 202.67 134.00 201.67 132.67 201.00 133.00 C 200.33 133.33 200.00 132.67 199.00 133.00 C 198.00 133.33 195.83 134.83 195.00 135.00 C 194.17 135.17 194.83 133.83 194.00 134.00 C 193.17 134.17 191.83 135.67 190.00 136.00 C 188.17 136.33 184.33 135.83 183.00 136.00 C 181.67 136.17 182.83 137.17 182.00 137.00 C 181.17 136.83 179.83 134.17 178.00 135.00 C 176.17 135.83 172.33 140.83 171.00 142.00 C 169.67 143.17 170.33 141.67 170.00 142.00 C 169.67 142.33 168.83 143.17 169.00 144.00 C 169.17 144.83 169.83 146.50 171.00 147.00 C 172.17 147.50 174.50 147.33 176.00 147.00 C 177.50 146.67 178.50 145.33 180.00 145.00 C 181.50 144.67 183.33 145.33 185.00 145.00 C 186.67 144.67 187.83 143.50 190.00 143.00 C 192.17 142.50 196.17 142.50 198.00 142.00 C 199.83 141.50 200.17 140.00 201.00 140.00 C 201.83 140.00 202.67 139.67 203.00 142.00 C 203.33 144.33 202.83 151.83 203.00 154.00 C 203.17 156.17 203.83 154.17 204.00 155.00 C 204.17 155.83 204.33 157.83 204.00 159.00 C 203.67 160.17 203.17 161.50 202.00 162.00 C 200.83 162.50 198.00 161.83 197.00 162.00 C 196.00 162.17 197.67 162.83 196.00 163.00 C 194.33 163.17 188.83 163.33 187.00 163.00 C 185.17 162.67 185.83 161.50 185.00 161.00 C 184.17 160.50 182.50 160.00 182.00 160.00 C 181.50 160.00 182.33 160.67 182.00 161.00 C 181.67 161.33 180.67 161.33 180.00 162.00 C 179.33 162.67 178.17 164.33 178.00 165.00 C 177.83 165.67 178.83 165.50 179.00 166.00 C 179.17 166.50 178.00 167.00 179.00 168.00 C 180.00 169.00 183.17 171.67 185.00 172.00 C 186.83 172.33 187.50 170.33 190.00 170.00 C 192.50 169.67 198.00 170.17 200.00 170.00 C 202.00 169.83 201.33 168.83 202.00 169.00 C 202.67 169.17 203.50 169.67 204.00 171.00 C 204.50 172.33 205.17 175.67 205.00 177.00 C 204.83 178.33 203.67 178.67 203.00 179.00 C 202.33 179.33 201.50 178.83 201.00 179.00 C 200.50 179.17 201.17 179.83 200.00 180.00 C 198.83 180.17 195.50 179.67 194.00 180.00 C 192.50 180.33 193.00 181.33 191.00 182.00 C 189.00 182.67 184.50 183.00 182.00 184.00 C 179.50 185.00 177.33 187.33 176.00 188.00 C 174.67 188.67 174.33 187.50 174.00 188.00 C 173.67 188.50 173.67 190.17 174.00 191.00 C 174.33 191.83 175.17 192.67 176.00 193.00 C 176.83 193.33 178.33 193.17 179.00 193.00 C 179.67 192.83 179.33 192.17 180.00 192.00 C 180.67 191.83 182.33 192.17 183.00 192.00 C 183.67 191.83 182.83 191.33 184.00 191.00 C 185.17 190.67 187.67 190.67 190.00 190.00 C 192.33 189.33 195.83 187.50 198.00 187.00 C 200.17 186.50 202.00 186.67 203.00 187.00 C 204.00 187.33 203.67 188.67 204.00 189.00 C 204.33 189.33 204.50 189.33 205.00 189.00 C 205.50 188.67 205.83 187.33 207.00 187.00 C 208.17 186.67 211.00 187.17 212.00 187.00 C 213.00 186.83 209.50 186.17 213.00 186.00 C 216.50 185.83 229.50 186.17 233.00 186.00 C 236.50 185.83 232.33 185.17 234.00 185.00 C 235.67 184.83 241.33 184.83 243.00 185.00 C 244.67 185.17 241.17 185.83 244.00 186.00 C 246.83 186.17 257.17 185.83 260.00 186.00 C 262.83 186.17 259.33 186.83 261.00 187.00 C 262.67 187.17 268.33 186.83 270.00 187.00 C 271.67 187.17 270.50 187.83 271.00 188.00 C 271.50 188.17 272.50 188.17 273.00 188.00 C 273.50 187.83 272.83 187.17 274.00 187.00 C 275.17 186.83 278.67 187.67 280.00 187.00 C 281.33 186.33 281.67 184.00 282.00 183.00 C 282.33 182.00 282.33 181.67 282.00 181.00 C 281.67 180.33 280.83 179.50 280.00 179.00 C 279.17 178.50 278.00 178.83 277.00 178.00 C 276.00 177.17 274.67 174.50 274.00 174.00 C 273.33 173.50 273.50 174.83 273.00 175.00 C 272.50 175.17 271.00 174.67 271.00 175.00 C 271.00 175.33 273.00 176.17 273.00 177.00 C 273.00 177.83 272.17 179.50 271.00 180.00 C 269.83 180.50 267.00 180.17 266.00 180.00 C 265.00 179.83 267.00 179.17 265.00 179.00 C 263.00 178.83 256.00 179.17 254.00 179.00 C 252.00 178.83 260.50 178.17 253.00 178.00 C 245.50 177.83 216.50 178.17 209.00 178.00 C 201.50 177.83 208.17 178.00 208.00 177.00 C 207.83 176.00 207.67 173.50 208.00 172.00 C 208.33 170.50 208.83 169.00 210.00 168.00 C 211.17 167.00 213.00 166.33 215.00 166.00 C 217.00 165.67 220.33 166.50 222.00 166.00 C 223.67 165.50 224.50 164.00 225.00 163.00 C 225.50 162.00 225.17 160.67 225.00 160.00 C 224.83 159.33 224.00 159.50 224.00 159.00 C 224.00 158.50 225.17 157.33 225.00 157.00 C 224.83 156.67 223.50 156.83 223.00 157.00 C 222.50 157.17 223.00 157.83 222.00 158.00 C 221.00 158.17 218.17 158.33 217.00 158.00 C 215.83 157.67 216.00 155.67 215.00 156.00 C 214.00 156.33 212.17 159.67 211.00 160.00 C 209.83 160.33 208.50 159.83 208.00 158.00 C 207.50 156.17 207.83 150.67 208.00 149.00 C 208.17 147.33 208.83 149.33 209.00 148.00 C 209.17 146.67 208.83 142.50 209.00 141.00 C 209.17 139.50 209.17 139.67 210.00 139.00 C 210.83 138.33 212.33 137.50 214.00 137.00 C 215.67 136.50 218.67 136.67 220.00 136.00 C 221.33 135.33 221.67 134.17 222.00 133.00 C 222.33 131.83 221.67 129.83 222.00 129.00 C 222.33 128.17 223.67 128.33 224.00 128.00 C 224.33 127.67 224.67 127.17 224.00 127.00 C 223.33 126.83 221.50 126.67 220.00 127.00 C 218.50 127.33 216.67 128.67 215.00 129.00 C 213.33 129.33 211.00 129.17 210.00 129.00 C 209.00 128.83 209.17 128.67 209.00 128.00 C 208.83 127.33 209.17 125.67 209.00 125.00 C 208.83 124.33 208.17 128.17 208.00 124.00 C 207.83 119.83 208.83 104.50 208.00 100.00 C 207.17 95.50 204.17 97.50 203.00 97.00 C 201.83 96.50 201.67 96.67 201.00 97.00 Z M 177.00 188.00 C 177.00 187.67 177.67 187.00 178.00 187.00 C 178.33 187.00 179.00 187.67 179.00 188.00 C 179.00 188.33 178.33 189.00 178.00 189.00 C 177.67 189.00 177.00 188.33 177.00 188.00 Z M 196.00 10.00 C 194.83 10.17 195.17 10.33 195.00 11.00 C 194.83 11.67 194.33 12.83 195.00 14.00 C 195.67 15.17 198.33 17.17 199.00 18.00 C 199.67 18.83 198.83 18.67 199.00 19.00 C 199.17 19.33 199.83 19.67 200.00 20.00 C 200.17 20.33 199.83 20.67 200.00 21.00 C 200.17 21.33 200.83 21.67 201.00 22.00 C 201.17 22.33 200.83 22.67 201.00 23.00 C 201.17 23.33 201.83 23.33 202.00 24.00 C 202.17 24.67 201.83 26.33 202.00 27.00 C 202.17 27.67 202.83 27.33 203.00 28.00 C 203.17 28.67 202.83 30.50 203.00 31.00 C 203.17 31.50 203.67 31.17 204.00 31.00 C 204.33 30.83 204.83 30.50 205.00 30.00 C 205.17 29.50 204.83 28.50 205.00 28.00 C 205.17 27.50 205.83 28.33 206.00 27.00 C 206.17 25.67 206.17 21.33 206.00 20.00 C 205.83 18.67 205.17 19.33 205.00 19.00 C 204.83 18.67 205.17 18.33 205.00 18.00 C 204.83 17.67 204.17 17.33 204.00 17.00 C 203.83 16.67 204.33 16.50 204.00 16.00 C 203.67 15.50 202.33 14.67 202.00 14.00 C 201.67 13.33 201.83 12.50 202.00 12.00 C 202.17 11.50 203.00 11.33 203.00 11.00 C 203.00 10.67 203.17 10.17 202.00 10.00 C 200.83 9.83 197.17 9.83 196.00 10.00 Z " fill="black" stroke="none"/></svg>